<svg width="40" xmlns="http://www.w3.org/2000/svg" height="40" id="screenshot-08024974-2d64-5914-bc50-c45975884eba" viewBox="0 0 40 40" xmlns:xlink="http://www.w3.org/1999/xlink" fill="none" version="1.1"><g id="shape-08024974-2d64-5914-bc50-c45975884eba"><g class="frame-container-wrapper" opacity="1"><g class="frame-container-blur"><g class="frame-container-shadows"><g fill="none"><g class="fills" id="fills-08024974-2d64-5914-bc50-c45975884eba"><rect width="40" height="40" class="frame-background" x="0" transform="matrix(1.000000, 0.000000, 0.000000, 1.000000, 0.000000, 0.000000)" style="fill: rgb(255, 255, 255); fill-opacity: 1;" ry="20" rx="20" y="0"/></g><g class="frame-children"><g id="shape-24add6c4-0ea8-504b-b9b8-ec88a4314c4e"><g class="frame-container-wrapper" opacity="1"><g class="frame-container-blur"><g class="frame-container-shadows"><g fill="none"><g class="fills" id="fills-24add6c4-0ea8-504b-b9b8-ec88a4314c4e"><rect width="20" height="20" class="frame-background" x="10" transform="matrix(1.000000, 0.000000, 0.000000, 1.000000, 0.000000, 0.000000)" style="fill: rgb(255, 255, 255); fill-opacity: 0;" ry="0" rx="0" y="10"/></g><g class="frame-children"><g id="shape-c64ca050-9ae6-531d-bf93-16c8db28cb52" rx="0" ry="0" style="opacity: 1;"><g id="shape-af570179-5a9b-55bc-9af3-bc3f6d759213" rx="0" ry="0" style="opacity: 1;"><g id="shape-66f62d1c-d1a8-5d32-bfb1-03c203711b31" style="opacity: 0.58;"><g class="fills" id="fills-66f62d1c-d1a8-5d32-bfb1-03c203711b31"><path d="M30,10L10,10L10,30L30,30L30,10Z" fill-rule="nonzero"/></g></g><g id="shape-c6423e23-2ef1-5f1a-bd99-bf6e499ae7a6" style="opacity: 1;"><g class="fills" id="fills-c6423e23-2ef1-5f1a-bd99-bf6e499ae7a6"><path d="M28.333251953125,23.49169921875C28.333251953125,26.525146484375,26.52490234375,28.33349609375,23.4915771484375,28.33349609375L22.5,28.33349609375C22.0416259765625,28.33349609375,21.6666259765625,27.95849609375,21.6666259765625,27.5L21.6666259765625,22.691650390625C21.6666259765625,22.466796875,21.8499755859375,22.275146484375,22.074951171875,22.275146484375L23.5416259765625,22.25C23.6583251953125,22.24169921875,23.75830078125,22.158447265625,23.7833251953125,22.041748046875L24.074951171875,20.4501953125C24.0999755859375,20.300048828125,23.9832763671875,20.158447265625,23.824951171875,20.158447265625L22.0499267578125,20.183349609375C21.816650390625,20.183349609375,21.63330078125,20,21.625,19.775146484375L21.5916748046875,17.7333984375C21.5916748046875,17.60009765625,21.699951171875,17.4833984375,21.8416748046875,17.4833984375L23.841552734375,17.4501953125C23.9832763671875,17.4501953125,24.0916748046875,17.341796875,24.0916748046875,17.2001953125L24.0582275390625,15.199951171875C24.0582275390625,15.058349609375,23.949951171875,14.9501953125,23.808349609375,14.9501953125L21.5582275390625,14.9833984375C20.1749267578125,15.008544921875,19.074951171875,16.141845703125,19.0999755859375,17.525146484375L19.1416015625,19.816650390625C19.14990234375,20.050048828125,18.9666748046875,20.2333984375,18.7332763671875,20.24169921875L17.7332763671875,20.25830078125C17.5916748046875,20.25830078125,17.4832763671875,20.36669921875,17.4832763671875,20.50830078125L17.50830078125,22.091796875C17.50830078125,22.2333984375,17.6165771484375,22.341796875,17.75830078125,22.341796875L18.75830078125,22.3251953125C18.9915771484375,22.3251953125,19.1749267578125,22.50830078125,19.1832275390625,22.7333984375L19.25830078125,27.4833984375C19.2666015625,27.9501953125,18.8916015625,28.33349609375,18.4249267578125,28.33349609375L16.50830078125,28.33349609375C13.4749755859375,28.33349609375,11.6666259765625,26.525146484375,11.6666259765625,23.4833984375L11.6666259765625,16.50830078125C11.6666259765625,13.47509765625,13.4749755859375,11.666748046875,16.50830078125,11.666748046875L23.4915771484375,11.666748046875C26.52490234375,11.666748046875,28.333251953125,13.47509765625,28.333251953125,16.50830078125L28.333251953125,23.49169921875L28.333251953125,23.49169921875Z" fill-rule="nonzero" style="fill: rgb(16, 23, 39); fill-opacity: 1;"/></g></g><g id="shape-3dca9716-8747-59c3-b0bb-de045560bbf3" style="opacity: 0;"><g class="fills" id="fills-3dca9716-8747-59c3-b0bb-de045560bbf3"><path d="M30,10L10,10L10,30L30,30L30,10Z" fill-rule="nonzero"/></g></g></g></g></g></g></g></g></g></g></g></g></g></g></g></g></svg>