<svg width="40" xmlns="http://www.w3.org/2000/svg" height="40" id="screenshot-b52ce7c7-6d1f-5a9d-b540-64dcec22bd9a" viewBox="0 0 40 40" xmlns:xlink="http://www.w3.org/1999/xlink" fill="none" version="1.1"><g id="shape-b52ce7c7-6d1f-5a9d-b540-64dcec22bd9a"><g class="frame-container-wrapper" opacity="1"><g class="frame-container-blur"><g class="frame-container-shadows"><g fill="none"><g class="fills" id="fills-b52ce7c7-6d1f-5a9d-b540-64dcec22bd9a"><rect width="40" height="40" class="frame-background" x="0" transform="matrix(1.000000, 0.000000, 0.000000, 1.000000, 0.000000, 0.000000)" style="fill: rgb(255, 255, 255); fill-opacity: 1;" ry="20" rx="20" y="0"/></g><g class="frame-children"><g id="shape-8b97722b-80e2-5d1c-9042-50b530d3e3ed"><g class="frame-container-wrapper" opacity="1"><g class="frame-container-blur"><g class="frame-container-shadows"><g fill="none"><g class="fills" id="fills-8b97722b-80e2-5d1c-9042-50b530d3e3ed"><rect width="20" height="20" class="frame-background" x="10" transform="matrix(1.000000, 0.000000, 0.000000, 1.000000, 0.000000, 0.000000)" style="fill: rgb(255, 255, 255); fill-opacity: 0;" ry="0" rx="0" y="10"/></g><g class="frame-children"><g id="shape-915f0f32-2710-5e14-add2-c41e29bca816" rx="0" ry="0" style="opacity: 1;"><g id="shape-60e3cde8-ac84-5d73-8829-852219adfc5d" rx="0" ry="0" style="opacity: 1;"><g id="shape-e9b465b4-4e80-538d-81c8-bb1ee634e10d" style="opacity: 1;"><g class="fills" id="fills-e9b465b4-4e80-538d-81c8-bb1ee634e10d"><path d="M23.4915771484375,11.666748046875L16.50830078125,11.666748046875C13.4749755859375,11.666748046875,11.6666259765625,13.47509765625,11.6666259765625,16.50830078125L11.6666259765625,23.4833984375C11.6666259765625,26.525146484375,13.4749755859375,28.33349609375,16.50830078125,28.33349609375L23.4832763671875,28.33349609375C26.5166015625,28.33349609375,28.324951171875,26.525146484375,28.324951171875,23.49169921875L28.324951171875,16.50830078125C28.333251953125,13.47509765625,26.52490234375,11.666748046875,23.4915771484375,11.666748046875ZM20,23.2333984375C18.2166748046875,23.2333984375,16.7666015625,21.783447265625,16.7666015625,20C16.7666015625,18.216796875,18.2166748046875,16.766845703125,20,16.766845703125C21.7833251953125,16.766845703125,23.2332763671875,18.216796875,23.2332763671875,20C23.2332763671875,21.783447265625,21.7833251953125,23.2333984375,20,23.2333984375ZM24.933349609375,15.7333984375C24.8916015625,15.83349609375,24.833251953125,15.925048828125,24.75830078125,16.00830078125C24.6749267578125,16.08349609375,24.583251953125,16.141845703125,24.4832763671875,16.183349609375C24.38330078125,16.22509765625,24.27490234375,16.25,24.1666259765625,16.25C23.941650390625,16.25,23.7332763671875,16.166748046875,23.574951171875,16.00830078125C23.5,15.925048828125,23.441650390625,15.83349609375,23.39990234375,15.7333984375C23.3582763671875,15.63330078125,23.333251953125,15.525146484375,23.333251953125,15.416748046875C23.333251953125,15.308349609375,23.3582763671875,15.2001953125,23.39990234375,15.10009765625C23.441650390625,14.99169921875,23.5,14.908447265625,23.574951171875,14.8251953125C23.7666015625,14.63330078125,24.058349609375,14.541748046875,24.324951171875,14.60009765625C24.38330078125,14.6083984375,24.433349609375,14.625,24.4832763671875,14.650146484375C24.5333251953125,14.666748046875,24.583251953125,14.691650390625,24.63330078125,14.72509765625C24.6749267578125,14.75,24.7166748046875,14.791748046875,24.75830078125,14.8251953125C24.833251953125,14.908447265625,24.8916015625,14.99169921875,24.933349609375,15.10009765625C24.9749755859375,15.2001953125,25,15.308349609375,25,15.416748046875C25,15.525146484375,24.9749755859375,15.63330078125,24.933349609375,15.7333984375Z" fill-rule="nonzero" style="fill: rgb(16, 23, 39); fill-opacity: 1;"/></g></g><g id="shape-6884e53a-1168-53c5-bc2e-536680218306" style="opacity: 0;"><g class="fills" id="fills-6884e53a-1168-53c5-bc2e-536680218306"><path d="M10,30L30,30L30,10L10,10L10,30Z" fill-rule="nonzero"/></g></g></g></g></g></g></g></g></g></g></g></g></g></g></g></g></svg>