<svg width="100" xmlns="http://www.w3.org/2000/svg" height="99" id="screenshot-4da109d8-4509-5c4c-bb89-597b976eda84" viewBox="0 0 100 99" xmlns:xlink="http://www.w3.org/1999/xlink" fill="none" version="1.1"><g id="shape-4da109d8-4509-5c4c-bb89-597b976eda84" rx="0" ry="0" style="opacity: 1;"><g id="shape-7033d1c2-dfa7-5d3f-be4e-b8b294a6419b" style="opacity: 0.1;"><defs><linearGradient id="fill-color-gradient-render-2-0" x1="-0.3187919470649135" y1="0.5574713019610515" x2="1.0000000404242362" y2="0.49999999102859016" gradientTransform=""><stop offset="0" stop-color="#4f39f6" stop-opacity="1"/><stop offset="1" stop-color="#9514fa" stop-opacity="1"/></linearGradient><pattern patternUnits="userSpaceOnUse" x="0" y="0" width="100" height="99" id="fill-0-render-2"><g><rect width="100" height="99" style="fill: url(&quot;#fill-color-gradient-render-2-0&quot;); fill-opacity: 1;"/></g></pattern></defs><g class="fills" id="fills-7033d1c2-dfa7-5d3f-be4e-b8b294a6419b"><ellipse cx="50" cy="49.5" rx="50" ry="49.5" transform="matrix(1.000000, 0.000000, 0.000000, 1.000000, 0.000000, 0.000000)" fill="url(#fill-0-render-2)"/></g></g><g id="shape-1ca98f0c-3076-50cf-90ac-617124d0c384"><defs><clipPath id="frame-clip-1ca98f0c-3076-50cf-90ac-617124d0c384-render-3" class="frame-clip frame-clip-def"><rect rx="0" ry="0" x="20" y="20" width="60" height="60" transform="matrix(1.000000, 0.000000, 0.000000, 1.000000, 0.000000, 0.000000)"/></clipPath></defs><g class="frame-container-wrapper" opacity="1"><g class="frame-container-blur"><g class="frame-container-shadows"><g clip-path="url(#frame-clip-1ca98f0c-3076-50cf-90ac-617124d0c384-render-3)" fill="none"><g class="fills" id="fills-1ca98f0c-3076-50cf-90ac-617124d0c384"><rect width="60" height="60" class="frame-background" x="20" transform="matrix(1.000000, 0.000000, 0.000000, 1.000000, 0.000000, 0.000000)" style="fill: rgb(255, 255, 255); fill-opacity: 0;" ry="0" rx="0" y="20"/></g><g class="frame-children"><g id="shape-12c45f19-2f12-517e-9a3a-d49437966e51" style="opacity: 1;"><defs><linearGradient id="fill-color-gradient-render-4-0" x1="-0.3187919470649135" y1="0.5574713019610515" x2="1.0000000404242362" y2="0.49999999102859016" gradientTransform=""><stop offset="0" stop-color="#4f39f6" stop-opacity="1"/><stop offset="1" stop-color="#9514fa" stop-opacity="1"/></linearGradient><pattern patternUnits="userSpaceOnUse" x="25" y="22.859037132009917" width="50" height="54.28061130549008" patternTransform="matrix(1.000000, 0.000000, 0.000000, 1.000000, 0.000000, 0.000000)" id="fill-0-render-4"><g><rect width="50" height="54.28061130549008" style="fill: url(&quot;#fill-color-gradient-render-4-0&quot;); fill-opacity: 1;"/></g></pattern></defs><g class="fills" id="fills-12c45f19-2f12-517e-9a3a-d49437966e51"><path d="M70,41.74658203125L52.5,51.470703125L52.5,70.748046875L69.228515625,61.45849609375C69.62841796875,61.236328125,69.8323974609375,61.1201171875,69.9755859375,61.02880859375C69.9794921875,61.0262451171875,69.981689453125,61.0213623046875,69.9853515625,61.01904296875C69.985595703125,61.0152587890625,69.987548828125,61.0108642578125,69.98779296875,61.0068359375C69.9979248046875,60.8375244140625,70,60.6036376953125,70,60.1474609375L70,41.74658203125ZM49.98779296875,27.876953125C49.8436279296875,27.946533203125,49.6510009765625,28.0548095703125,49.2724609375,28.26513671875L32.646484375,37.49853515625L50,47.13720703125L67.35107421875,37.49853515625L50.7275390625,28.26513671875C50.3489990234375,28.0548095703125,50.1563720703125,27.946533203125,50.01220703125,27.876953125C50.0078125,27.8748779296875,50.0040283203125,27.87158203125,50,27.86962890625C49.9959716796875,27.87158203125,49.9921875,27.8748779296875,49.98779296875,27.876953125ZM30.01220703125,61.0068359375C30.012451171875,61.0108642578125,30.011962890625,61.015380859375,30.01220703125,61.01904296875C30.016357421875,61.021728515625,30.019775390625,61.02587890625,30.0244140625,61.02880859375C30.1676025390625,61.1201171875,30.37158203125,61.236328125,30.771484375,61.45849609375L47.5,70.748046875L47.5,51.470703125L30,41.74658203125L30,60.1474609375C30,60.6036376953125,30.0020751953125,60.8375244140625,30.01220703125,61.0068359375ZM75,60.69677734375C74.9952392578125,61.2823486328125,74.96044921875,61.9571533203125,74.74853515625,62.5986328125C74.525146484375,63.2742919921875,74.158935546875,63.8941650390625,73.6767578125,64.41748046875C73.06689453125,65.0792236328125,72.2559814453125,65.4962158203125,71.65771484375,65.82861328125L53.15673828125,76.10693359375C52.589599609375,76.422119140625,51.847412109375,76.8642578125,51.00830078125,77.037109375C50.34375,77.173828125,49.65625,77.173828125,48.99169921875,77.037109375C48.152587890625,76.8642578125,47.410400390625,76.422119140625,46.84326171875,76.10693359375L28.34228515625,65.82861328125C27.7440185546875,65.4962158203125,26.93310546875,65.0792236328125,26.3232421875,64.41748046875C25.841064453125,63.8941650390625,25.474853515625,63.2742919921875,25.25146484375,62.5986328125C25.03955078125,61.9571533203125,25.0047607421875,61.2823486328125,25,60.69677734375L25,39.302734375C25.0047607421875,38.7176513671875,25.0399169921875,38.04443359375,25.25146484375,37.4033203125C25.4747314453125,36.7274169921875,25.8408203125,36.10546875,26.3232421875,35.58203125C26.93310546875,34.92041015625,27.7440185546875,34.5032958984375,28.34228515625,34.1708984375L46.84326171875,23.892578125C47.410400390625,23.5775146484375,48.152587890625,23.13525390625,48.99169921875,22.96240234375C49.489990234375,22.8599853515625,50.001220703125,22.8331298828125,50.50537109375,22.88427734375L51.00830078125,22.96240234375L51.318359375,23.0380859375C52.0302734375,23.242919921875,52.660400390625,23.6168212890625,53.15673828125,23.892578125L71.65771484375,34.1708984375C72.2559814453125,34.5032958984375,73.06689453125,34.92041015625,73.6767578125,35.58203125C74.0386962890625,35.974853515625,74.333740234375,36.42333984375,74.55322265625,36.90771484375L74.74853515625,37.4033203125L74.8388671875,37.7255859375C74.9698486328125,38.26611328125,74.9959716796875,38.81494140625,75,39.302734375L75,60.69677734375Z" fill="url(#fill-0-render-4)" fill-rule="nonzero"/></g></g><g id="shape-404b2924-64f9-58c8-886c-928e668eeab2" style="opacity: 1;"><defs><linearGradient id="fill-color-gradient-render-5-0" x1="-0.3187919470649135" y1="0.5574713019610515" x2="1.0000000404242362" y2="0.49999999102859016" gradientTransform=""><stop offset="0" stop-color="#4f39f6" stop-opacity="1"/><stop offset="1" stop-color="#9514fa" stop-opacity="1"/></linearGradient><pattern patternUnits="userSpaceOnUse" x="36.25011797520642" y="28.75011797520665" width="27.499709878051817" height="17.499709878051817" patternTransform="matrix(1.000000, 0.000000, 0.000000, 1.000000, 0.000000, 0.000000)" id="fill-0-render-5"><g><rect width="27.499709878051817" height="17.499709878051817" style="fill: url(&quot;#fill-color-gradient-render-5-0&quot;); fill-opacity: 1;"/></g></pattern></defs><g class="fills" id="fills-404b2924-64f9-58c8-886c-928e668eeab2"><path d="M36.56494140625,30.03662109375C37.2353515625,28.829833984375,38.7564697265625,28.3946533203125,39.96337890625,29.06494140625L62.46337890625,41.56494140625C63.670166015625,42.2353515625,64.105224609375,43.7564697265625,63.43505859375,44.96337890625C62.7645263671875,46.170166015625,61.2435302734375,46.605224609375,60.03662109375,45.93505859375L37.53662109375,33.43505859375C36.329833984375,32.7645263671875,35.8946533203125,31.2435302734375,36.56494140625,30.03662109375Z" fill="url(#fill-0-render-5)" fill-rule="nonzero"/></g></g></g></g></g></g></g></g></g></svg>