<svg width="100" xmlns="http://www.w3.org/2000/svg" height="99" id="screenshot-30ca808f-eb91-5e4b-9e2d-a334f8e0b2e6" viewBox="0 0 100 99" xmlns:xlink="http://www.w3.org/1999/xlink" fill="none" version="1.1"><g id="shape-30ca808f-eb91-5e4b-9e2d-a334f8e0b2e6" rx="0" ry="0" style="opacity: 1;"><g id="shape-50121b71-a09a-59f9-b6b4-16d439077e6d" style="opacity: 0.1;"><defs><linearGradient id="fill-color-gradient-render-2-0" x1="-0.3187919470649135" y1="0.5574713019610515" x2="1.0000000404242362" y2="0.49999999102859016" gradientTransform=""><stop offset="0" stop-color="#4f39f6" stop-opacity="1"/><stop offset="1" stop-color="#9514fa" stop-opacity="1"/></linearGradient><pattern patternUnits="userSpaceOnUse" x="0" y="0" width="100" height="99" id="fill-0-render-2"><g><rect width="100" height="99" style="fill: url(&quot;#fill-color-gradient-render-2-0&quot;); fill-opacity: 1;"/></g></pattern></defs><g class="fills" id="fills-50121b71-a09a-59f9-b6b4-16d439077e6d"><ellipse cx="50" cy="49.5" rx="50" ry="49.5" transform="matrix(1.000000, 0.000000, 0.000000, 1.000000, 0.000000, 0.000000)" fill="url(#fill-0-render-2)"/></g></g><g id="shape-740ea887-17ca-5b27-8a13-8f672f7aefad"><defs><clipPath id="frame-clip-740ea887-17ca-5b27-8a13-8f672f7aefad-render-3" class="frame-clip frame-clip-def"><rect rx="0" ry="0" x="20" y="20" width="60" height="60" transform="matrix(1.000000, 0.000000, 0.000000, 1.000000, 0.000000, 0.000000)"/></clipPath></defs><g class="frame-container-wrapper" opacity="1"><g class="frame-container-blur"><g class="frame-container-shadows"><g clip-path="url(#frame-clip-740ea887-17ca-5b27-8a13-8f672f7aefad-render-3)" fill="none"><g class="fills" id="fills-740ea887-17ca-5b27-8a13-8f672f7aefad"><rect width="60" height="60" class="frame-background" x="20" transform="matrix(1.000000, 0.000000, 0.000000, 1.000000, 0.000000, 0.000000)" style="fill: rgb(255, 255, 255); fill-opacity: 0;" ry="0" rx="0" y="20"/></g><g class="frame-children"><g id="shape-8df970f7-6692-5190-9468-564e4d694c5a" style="opacity: 1;"><defs><linearGradient id="fill-color-gradient-render-4-0" x1="-0.3187919470649135" y1="0.5574713019610515" x2="1.0000000404242362" y2="0.49999999102859016" gradientTransform=""><stop offset="0" stop-color="#4f39f6" stop-opacity="1"/><stop offset="1" stop-color="#9514fa" stop-opacity="1"/></linearGradient><pattern patternUnits="userSpaceOnUse" x="23.750085388212028" y="22.498729913549823" width="53.74991461178797" height="53.75076024604641" patternTransform="matrix(1.000000, 0.000000, 0.000000, 1.000000, 0.000000, 0.000000)" id="fill-0-render-4"><g><rect width="53.74991461178797" height="53.75076024604641" style="fill: url(&quot;#fill-color-gradient-render-4-0&quot;); fill-opacity: 1;"/></g></pattern></defs><g class="fills" id="fills-8df970f7-6692-5190-9468-564e4d694c5a"><path d="M35.00732421875,57.4700927734375C36.7213134765625,57.523193359375,38.365966796875,58.12939453125,39.69970703125,59.1864013671875L40.25146484375,59.6673583984375L40.28076171875,59.6966552734375C43.2509765625,62.6292724609375,43.2119140625,67.332763671875,40.66162109375,70.3558349609375L40.6640625,70.3582763671875C39.5572509765625,71.6759033203125,38.03173828125,72.642333984375,36.56494140625,73.3587646484375C35.0697021484375,74.0892333984375,33.4564208984375,74.6458740234375,32.0068359375,75.0604248046875C30.5498046875,75.477294921875,29.205322265625,75.765869140625,28.2275390625,75.9515380859375C27.7369384765625,76.0447998046875,27.3321533203125,76.1141357421875,27.04833984375,76.1590576171875C26.907470703125,76.181396484375,26.7952880859375,76.1964111328125,26.71630859375,76.2078857421875C26.6767578125,76.2137451171875,26.6436767578125,76.219482421875,26.62109375,76.2225341796875C26.6103515625,76.22412109375,26.6009521484375,76.22412109375,26.59423828125,76.2249755859375C26.59130859375,76.2254638671875,26.5889892578125,76.2271728515625,26.5869140625,76.2274169921875L26.58203125,76.2274169921875C25.8099365234375,76.3306884765625,25.0333251953125,76.06787109375,24.482421875,75.5169677734375C23.93212890625,74.9664306640625,23.669189453125,74.1915283203125,23.77197265625,73.4197998046875L26.25,73.7493896484375L23.77197265625,73.4173583984375L23.77197265625,73.4124755859375C23.7723388671875,73.410400390625,23.7740478515625,73.4080810546875,23.7744140625,73.4051513671875C23.775390625,73.3984375,23.775390625,73.389404296875,23.77685546875,73.3782958984375C23.780029296875,73.35595703125,23.785888671875,73.32470703125,23.79150390625,73.2855224609375C23.8031005859375,73.2064208984375,23.8203125,73.093017578125,23.8427734375,72.9510498046875C23.8878173828125,72.66748046875,23.954833984375,72.2646484375,24.0478515625,71.7742919921875C24.2335205078125,70.7965087890625,24.5220947265625,69.4501953125,24.93896484375,67.9925537109375C25.3536376953125,66.543212890625,25.9102783203125,64.9296875,26.640625,63.4344482421875C27.3570556640625,61.9678955078125,28.32373046875,60.442138671875,29.64111328125,59.3353271484375C31.1390380859375,58.07421875,33.0501708984375,57.4097900390625,35.00732421875,57.4700927734375ZM75.0146484375,22.4993896484375C76.38916015625,22.5079345703125,77.499755859375,23.6251220703125,77.5,24.9993896484375C77.5,32.025146484375,75.5260009765625,44.2647705078125,62.8662109375,53.5369873046875C63.07958984375,54.4312744140625,63.3233642578125,55.6090087890625,63.4912109375,56.9110107421875C63.674072265625,58.329345703125,63.7772216796875,59.962646484375,63.6279296875,61.5692138671875C63.480712890625,63.154296875,63.071533203125,64.8988037109375,62.080078125,66.3861083984375L62.07763671875,66.3909912109375C60.3802490234375,68.927734375,57.1798095703125,70.3992919921875,54.94384765625,71.2103271484375C53.742431640625,71.646240234375,52.631591796875,71.954833984375,51.82373046875,72.1551513671875C51.4185791015625,72.2557373046875,51.0843505859375,72.329833984375,50.84716796875,72.3797607421875C50.728515625,72.4049072265625,50.631591796875,72.4251708984375,50.56396484375,72.4383544921875C50.53076171875,72.4449462890625,50.5030517578125,72.4493408203125,50.4833984375,72.4530029296875C50.473876953125,72.454833984375,50.4652099609375,72.456787109375,50.458984375,72.4578857421875C50.456298828125,72.45849609375,50.4537353515625,72.45751953125,50.45166015625,72.4578857421875L50.44921875,72.4603271484375L50.44677734375,72.4603271484375C49.717529296875,72.5927734375,48.9674072265625,72.3934326171875,48.3984375,71.9183349609375C47.82958984375,71.443359375,47.5,70.7406005859375,47.5,69.9993896484375L47.5,58.5345458984375L41.46484375,52.4993896484375L30,52.4993896484375C29.2589111328125,52.4993896484375,28.55615234375,52.169921875,28.0810546875,51.6009521484375C27.6064453125,51.0321044921875,27.40673828125,50.2816162109375,27.5390625,49.5526123046875L30,49.9993896484375C27.7286376953125,49.587158203125,27.5548095703125,49.5555419921875,27.54150390625,49.5526123046875L27.54150390625,49.5404052734375C27.542724609375,49.5341796875,27.5445556640625,49.5257568359375,27.54638671875,49.5159912109375C27.5501708984375,49.4962158203125,27.5570068359375,49.4691162109375,27.5634765625,49.4354248046875C27.57666015625,49.3680419921875,27.5947265625,49.2730712890625,27.61962890625,49.1546630859375C27.669677734375,48.91748046875,27.74365234375,48.58154296875,27.84423828125,48.1756591796875C28.044677734375,47.3680419921875,28.35595703125,46.2591552734375,28.79150390625,45.0579833984375C29.6026611328125,42.82177734375,31.0736083984375,39.619140625,33.61083984375,37.9217529296875L33.61328125,37.9193115234375C35.1007080078125,36.9278564453125,36.84521484375,36.518798828125,38.43017578125,36.3714599609375C40.0369873046875,36.22216796875,41.6700439453125,36.325439453125,43.08837890625,36.5081787109375C44.4024658203125,36.6776123046875,45.589599609375,36.9259033203125,46.48681640625,37.1405029296875C49.51416015625,32.867431640625,53.4749755859375,29.325927734375,58.07861328125,26.7938232421875C63.2652587890625,23.94140625,69.0955810546875,22.462890625,75.0146484375,22.4993896484375ZM34.853515625,62.4700927734375C34.1270751953125,62.4476318359375,33.4173583984375,62.6927490234375,32.861328125,63.1610107421875L32.85888671875,63.1634521484375C32.3016357421875,63.631591796875,31.7054443359375,64.4571533203125,31.1328125,65.6292724609375C30.5743408203125,66.77294921875,30.115234375,68.0880126953125,29.74853515625,69.3695068359375C29.630859375,69.78125,29.524658203125,70.184326171875,29.4287109375,70.5706787109375C29.8154296875,70.4747314453125,30.2203369140625,70.3712158203125,30.63232421875,70.2532958984375C31.91357421875,69.8868408203125,33.2269287109375,69.425048828125,34.3701171875,68.8665771484375C35.5421142578125,68.294189453125,36.3677978515625,67.7001953125,36.8359375,67.1429443359375L36.8408203125,67.1356201171875C37.8331298828125,65.9613037109375,37.7464599609375,64.22802734375,36.77490234375,63.2611083984375C36.2520751953125,62.7730712890625,35.5693359375,62.4923095703125,34.853515625,62.4700927734375ZM58.349609375,56.3739013671875C56.4537353515625,57.420654296875,54.5013427734375,58.361328125,52.5,59.1912841796875L52.5,66.7620849609375C52.739990234375,66.6837158203125,52.98681640625,66.59912109375,53.2373046875,66.5081787109375C55.3948974609375,65.7255859375,57.1947021484375,64.697998046875,57.92236328125,63.6102294921875C58.279541015625,63.07275390625,58.5443115234375,62.243408203125,58.64990234375,61.1077880859375C58.7537841796875,59.9910888671875,58.6875,58.7509765625,58.53271484375,57.5506591796875C58.4803466796875,57.1435546875,58.4158935546875,56.7491455078125,58.349609375,56.3739013671875ZM72.39501953125,27.5994873046875C68.227783203125,27.9381103515625,64.1688232421875,29.1519775390625,60.48828125,31.1761474609375C56.048828125,33.617919921875,52.305908203125,37.1539306640625,49.619140625,41.4495849609375L49.6044921875,41.4739990234375C47.991455078125,43.99365234375,46.59765625,46.64599609375,45.43701171875,49.4012451171875L50.60302734375,54.5672607421875C53.3917236328125,53.4095458984375,56.078125,52.017822265625,58.6328125,50.4046630859375C69.195556640625,43.3101806640625,71.8837890625,34.034912109375,72.39501953125,27.5994873046875ZM38.89404296875,41.3494873046875C37.7559814453125,41.455322265625,36.92431640625,41.7213134765625,36.38671875,42.0794677734375C35.3001708984375,42.8084716796875,34.273193359375,44.6065673828125,33.4912109375,46.7620849609375C33.400390625,47.0126953125,33.3157958984375,47.2593994140625,33.2373046875,47.4993896484375L40.8154296875,47.4993896484375C41.65625,45.4993896484375,42.608642578125,43.548828125,43.66943359375,41.6571044921875C43.2813720703125,41.5880126953125,42.87158203125,41.521240234375,42.44873046875,41.4666748046875C41.2490234375,41.3121337890625,40.0103759765625,41.245849609375,38.89404296875,41.3494873046875Z" fill="url(#fill-0-render-4)" fill-rule="nonzero"/></g></g></g></g></g></g></g></g></g></svg>