<svg width="16.255" xmlns="http://www.w3.org/2000/svg" height="11.877" id="screenshot-7fa7e5fa-5378-5954-a5e7-a1c46c8c2157" viewBox="846.185 2523.687 16.255 11.877" xmlns:xlink="http://www.w3.org/1999/xlink" fill="none" version="1.1"><g id="shape-7fa7e5fa-5378-5954-a5e7-a1c46c8c2157" style="opacity: 1;"><g class="fills" id="fills-7fa7e5fa-5378-5954-a5e7-a1c46c8c2157"><path d="M862.163330078125,2525.288330078125L852.163330078125,2535.288330078125C852.0762329101562,2535.375732421875,851.9727172851562,2535.445068359375,851.8587646484375,2535.492431640625C851.7448120117188,2535.539794921875,851.6226196289062,2535.564208984375,851.499267578125,2535.564208984375C851.3758544921875,2535.564208984375,851.253662109375,2535.539794921875,851.1397094726562,2535.492431640625C851.0257568359375,2535.445068359375,850.9223022460938,2535.375732421875,850.835205078125,2535.288330078125L846.460205078125,2530.913330078125C846.3729858398438,2530.826171875,846.3037719726562,2530.72265625,846.256591796875,2530.608642578125C846.2094116210938,2530.494873046875,846.1851196289062,2530.37255859375,846.1851196289062,2530.249267578125C846.1851196289062,2530.1259765625,846.2094116210938,2530.00390625,846.256591796875,2529.889892578125C846.3037719726562,2529.776123046875,846.3729858398438,2529.67236328125,846.460205078125,2529.585205078125C846.54736328125,2529.498046875,846.6509399414062,2529.428955078125,846.7648315429688,2529.381591796875C846.8787841796875,2529.33447265625,847.0009155273438,2529.310302734375,847.124267578125,2529.310302734375C847.24755859375,2529.310302734375,847.3696899414062,2529.33447265625,847.483642578125,2529.381591796875C847.5975952148438,2529.428955078125,847.7011108398438,2529.498046875,847.788330078125,2529.585205078125L851.5,2533.296875L860.8367309570312,2523.9619140625C861.0128784179688,2523.78564453125,861.251708984375,2523.686767578125,861.5007934570312,2523.686767578125C861.7498779296875,2523.686767578125,861.98876953125,2523.78564453125,862.1648559570312,2523.9619140625C862.3410034179688,2524.137939453125,862.43994140625,2524.376708984375,862.43994140625,2524.6259765625C862.43994140625,2524.875,862.3410034179688,2525.11376953125,862.1648559570312,2525.2900390625L862.163330078125,2525.288330078125Z" fill-rule="nonzero" style="fill: rgb(48, 184, 104); fill-opacity: 1;"/></g></g></svg>