<svg width="40" xmlns="http://www.w3.org/2000/svg" height="40" id="screenshot-7ce9dc0d-9dd1-53f0-a004-af2b56babf37" viewBox="0 0 40 40" xmlns:xlink="http://www.w3.org/1999/xlink" fill="none" version="1.1"><g id="shape-7ce9dc0d-9dd1-53f0-a004-af2b56babf37"><g class="frame-container-wrapper" opacity="1"><g class="frame-container-blur"><g class="frame-container-shadows"><g fill="none"><g class="fills" id="fills-7ce9dc0d-9dd1-53f0-a004-af2b56babf37"><rect width="40" height="40" class="frame-background" x="0" transform="matrix(1.000000, 0.000000, 0.000000, 1.000000, 0.000000, 0.000000)" style="fill: rgb(255, 255, 255); fill-opacity: 1;" ry="20" rx="20" y="0"/></g><g class="frame-children"><g id="shape-0c7b1b70-fde8-5bdb-b049-56c503f01f4b"><defs><clipPath id="frame-clip-0c7b1b70-fde8-5bdb-b049-56c503f01f4b-render-2" class="frame-clip frame-clip-def"><rect rx="0" ry="0" x="10" y="10" width="20" height="20" transform="matrix(1.000000, 0.000000, 0.000000, 1.000000, 0.000000, 0.000000)"/></clipPath></defs><g class="frame-container-wrapper" opacity="1"><g class="frame-container-blur"><g class="frame-container-shadows"><g clip-path="url(#frame-clip-0c7b1b70-fde8-5bdb-b049-56c503f01f4b-render-2)" fill="none"><g class="fills" id="fills-0c7b1b70-fde8-5bdb-b049-56c503f01f4b"><rect width="20" height="20" class="frame-background" x="10" transform="matrix(1.000000, 0.000000, 0.000000, 1.000000, 0.000000, 0.000000)" style="fill: rgb(255, 255, 255); fill-opacity: 0;" ry="0" rx="0" y="10"/></g><g class="frame-children"><g id="shape-88318206-7188-56f4-bf71-94fbb35dc895" style="opacity: 1;"><g class="fills" id="fills-88318206-7188-56f4-bf71-94fbb35dc895"><path d="M21.522216796875,19.18310546875L27.478515625,12.408203125L26.0670166015625,12.408203125L20.8951416015625,18.290771484375L16.764404296875,12.408203125L12,12.408203125L18.24658203125,21.3037109375L12,28.408203125L13.4114990234375,28.408203125L18.8731689453125,22.196044921875L23.235595703125,28.408203125L28,28.408203125L21.5218505859375,19.18310546875L21.522216796875,19.18310546875ZM19.5888671875,21.382080078125L18.9559326171875,20.496337890625L13.920166015625,13.447998046875L16.0882568359375,13.447998046875L20.152099609375,19.13623046875L20.7850341796875,20.02197265625L26.0677490234375,27.415771484375L23.899658203125,27.415771484375L19.5888671875,21.38232421875L19.5888671875,21.382080078125Z" fill-rule="nonzero" style="fill: rgb(16, 23, 39); fill-opacity: 1;"/></g></g></g></g></g></g></g></g></g></g></g></g></g></g></svg>