<svg width="100" xmlns="http://www.w3.org/2000/svg" height="99" id="screenshot-5f602508-c32a-5cb2-b4d1-a6b5a9698198" viewBox="0 0 100 99" xmlns:xlink="http://www.w3.org/1999/xlink" fill="none" version="1.1"><g id="shape-5f602508-c32a-5cb2-b4d1-a6b5a9698198" rx="0" ry="0" style="opacity: 1;"><g id="shape-8fc252b8-3bd1-5c53-a686-20c4bffa7db0" style="opacity: 0.1;"><defs><linearGradient id="fill-color-gradient-render-2-0" x1="-0.3187919470649135" y1="0.5574713019610515" x2="1.0000000404242362" y2="0.49999999102859016" gradientTransform=""><stop offset="0" stop-color="#627382" stop-opacity="1"/><stop offset="1" stop-color="#9514fa" stop-opacity="1"/></linearGradient><pattern patternUnits="userSpaceOnUse" x="0" y="0" width="99.99999999999989" height="99" id="fill-0-render-2"><g><rect width="99.99999999999989" height="99" style="fill: url(&quot;#fill-color-gradient-render-2-0&quot;); fill-opacity: 1;"/></g></pattern></defs><g class="fills" id="fills-8fc252b8-3bd1-5c53-a686-20c4bffa7db0"><ellipse cx="49.99999999999994" cy="49.5" rx="49.99999999999994" ry="49.5" transform="matrix(1.000000, 0.000000, 0.000000, 1.000000, 0.000000, 0.000000)" fill="url(#fill-0-render-2)"/></g></g><g id="shape-70ca2332-403f-5e06-9300-8fc3ed065acf"><defs><clipPath id="frame-clip-70ca2332-403f-5e06-9300-8fc3ed065acf-render-3" class="frame-clip frame-clip-def"><rect rx="0" ry="0" x="20" y="20" width="59.999999999999886" height="60" transform="matrix(1.000000, 0.000000, 0.000000, 1.000000, 0.000000, 0.000000)"/></clipPath></defs><g class="frame-container-wrapper" opacity="1"><g class="frame-container-blur"><g class="frame-container-shadows"><g clip-path="url(#frame-clip-70ca2332-403f-5e06-9300-8fc3ed065acf-render-3)" fill="none"><g class="fills" id="fills-70ca2332-403f-5e06-9300-8fc3ed065acf"><rect width="59.999999999999886" height="60" class="frame-background" x="20" transform="matrix(1.000000, 0.000000, 0.000000, 1.000000, 0.000000, 0.000000)" style="fill: rgb(255, 255, 255); fill-opacity: 0;" ry="0" rx="0" y="20"/></g><g class="frame-children"><g id="shape-a060fafe-6aad-5e3b-be6c-5e26dc6a4629" style="opacity: 1;"><defs><linearGradient id="fill-color-gradient-render-4-0" x1="-0.3187919470649135" y1="0.5574713019610515" x2="1.0000000404242362" y2="0.49999999102859016" gradientTransform=""><stop offset="0" stop-color="#627382" stop-opacity="1"/><stop offset="1" stop-color="#9514fa" stop-opacity="1"/></linearGradient><pattern patternUnits="userSpaceOnUse" x="27.49977205054438" y="25" width="45.00045454586268" height="50" patternTransform="matrix(1.000000, 0.000000, 0.000000, 1.000000, 0.000000, 0.000000)" id="fill-0-render-4"><g><rect width="45.00045454586268" height="50" style="fill: url(&quot;#fill-color-gradient-render-4-0&quot;); fill-opacity: 1;"/></g></pattern></defs><g class="fills" id="fills-a060fafe-6aad-5e3b-be6c-5e26dc6a4629"><path d="M67.5,72.5C67.5,68.8292236328125,67.4735107421875,67.5474853515625,67.177734375,66.572265625C66.4505615234375,64.175537109375,64.574462890625,62.2994384765625,62.177734375,61.572265625C61.20257568359375,61.2764892578125,59.9207763671875,61.25,56.25,61.25L43.75,61.25C40.07916259765625,61.25,38.79742431640625,61.2764892578125,37.822265625,61.572265625C35.425537109375,62.2994384765625,33.5494384765625,64.175537109375,32.822265625,66.572265625C32.52642822265625,67.5474853515625,32.5,68.8292236328125,32.5,72.5C32.5,73.8807373046875,31.38067626953125,75,30,75C28.6192626953125,75,27.5,73.8807373046875,27.5,72.5C27.5,69.1934814453125,27.47198486328125,66.9857177734375,28.037109375,65.1220703125C29.24896240234375,61.1270751953125,32.37701416015625,57.9990234375,36.3720703125,56.787109375C38.23565673828125,56.2220458984375,40.4434814453125,56.25,43.75,56.25L56.25,56.25C59.55645751953125,56.25,61.7642822265625,56.2220458984375,63.6279296875,56.787109375C67.6229248046875,57.9990234375,70.7509765625,61.1270751953125,71.962890625,65.1220703125C72.5279541015625,66.9857177734375,72.5,69.1934814453125,72.5,72.5C72.5,73.8807373046875,71.3807373046875,75,70,75C68.6192626953125,75,67.5,73.8807373046875,67.5,72.5ZM58.75,38.75C58.75,33.91748046875,54.83245849609375,30,50,30C45.16748046875,30,41.25,33.91748046875,41.25,38.75C41.25,43.58251953125,45.16748046875,47.5,50,47.5C54.83245849609375,47.5,58.75,43.58251953125,58.75,38.75ZM63.75,38.75C63.75,46.3438720703125,57.5938720703125,52.5,50,52.5C42.40606689453125,52.5,36.25,46.3438720703125,36.25,38.75C36.25,31.1561279296875,42.40606689453125,25,50,25C57.5938720703125,25,63.75,31.1561279296875,63.75,38.75Z" fill="url(#fill-0-render-4)" fill-rule="nonzero"/></g></g></g></g></g></g></g></g></g></svg>